<svg width="800.7" height="81.104" viewBox="0 0 800.7 81.104" xmlns="http://www.w3.org/2000/svg"><g id="svgGroup" stroke-linecap="round" fill-rule="evenodd" font-size="9pt" stroke="#000" stroke-width="0" fill="#bac1cc" style="stroke:#000;stroke-width:0;fill:#bac1cc"><path d="M 128.6 17.402 L 87 17.402 L 87 22.802 L 125.5 22.802 L 125.5 38.202 L 87 38.202 L 87 42.902 L 125.5 42.902 L 125.5 58.302 L 87 58.302 L 87 63.702 L 128.6 63.702 L 128.6 79.102 L 71.6 79.102 L 71.6 2.002 L 128.6 2.002 L 128.6 17.402 Z M 800.7 17.402 L 759.1 17.402 L 759.1 22.802 L 797.6 22.802 L 797.6 38.202 L 759.1 38.202 L 759.1 42.902 L 797.6 42.902 L 797.6 58.302 L 759.1 58.302 L 759.1 63.702 L 800.7 63.702 L 800.7 79.102 L 743.7 79.102 L 743.7 2.002 L 800.7 2.002 L 800.7 17.402 Z M 0 58.002 L 0 56.502 L 15.4 56.502 L 15.4 58.002 C 15.4 61.789 21.42 64.655 27.44 65.468 A 25.242 25.242 0 0 0 30.8 65.702 C 35.7 65.702 41.2 64.502 44.8 60.902 L 0 27.002 L 0 23.102 A 21.476 21.476 0 0 1 12.688 4.265 A 39.151 39.151 0 0 1 30.8 0.002 A 38.49 38.49 0 0 1 50.464 5.183 A 20.956 20.956 0 0 1 61.6 23.102 L 61.6 24.602 L 46.2 24.602 L 46.2 23.102 C 46.2 19.315 40.18 16.448 34.16 15.635 A 25.242 25.242 0 0 0 30.8 15.402 A 27.015 27.015 0 0 0 27.019 15.668 C 23.582 16.156 20.094 17.35 17.527 19.532 A 12.196 12.196 0 0 0 16.8 20.202 L 61.6 54.102 L 61.6 58.002 A 21.4 21.4 0 0 1 49.283 76.609 A 38.856 38.856 0 0 1 30.8 81.102 A 38.149 38.149 0 0 1 10.233 75.337 A 20.634 20.634 0 0 1 0 58.002 Z M 134.6 2.002 L 197.8 2.002 L 197.8 32.802 L 182.4 32.802 L 182.4 17.402 L 173.9 17.402 L 173.9 63.702 L 181.6 63.702 L 181.6 79.102 L 150.8 79.102 L 150.8 63.702 L 158.5 63.702 L 158.5 17.402 L 150 17.402 L 150 32.802 L 134.6 32.802 L 134.6 2.002 Z M 203.8 2.002 L 267 2.002 L 267 32.802 L 251.6 32.802 L 251.6 17.402 L 243.1 17.402 L 243.1 63.702 L 250.8 63.702 L 250.8 79.102 L 220 79.102 L 220 63.702 L 227.7 63.702 L 227.7 17.402 L 219.2 17.402 L 219.2 32.802 L 203.8 32.802 L 203.8 2.002 Z M 384.6 79.102 L 316.8 79.102 L 316.8 2.002 L 332.2 2.002 L 369.2 52.902 L 369.2 2.002 L 384.6 2.002 L 384.6 79.102 Z M 637.8 79.102 L 614.2 23.902 L 590.6 79.102 L 573.8 79.102 L 606.8 2.002 L 621.6 2.002 L 654.5 79.102 L 637.8 79.102 Z M 442.4 32.802 L 474.8 32.802 L 474.8 40.602 C 474.8 62.802 457.2 81.102 434.7 81.102 C 412.4 81.102 394.6 63.302 394.6 40.602 A 40.546 40.546 0 0 1 411.683 7.191 A 39.81 39.81 0 0 1 434.7 0.002 C 445.2 0.002 455.2 3.902 463 11.702 L 452.1 22.602 C 449.3 19.902 446.1 17.902 442.4 16.602 L 442.4 32.802 Z M 701.3 32.802 L 733.7 32.802 L 733.7 40.602 C 733.7 62.802 716.1 81.102 693.6 81.102 C 671.3 81.102 653.5 63.302 653.5 40.602 A 40.546 40.546 0 0 1 670.583 7.191 A 39.81 39.81 0 0 1 693.6 0.002 C 704.1 0.002 714.1 3.902 721.9 11.702 L 711 22.602 C 708.2 19.902 705 17.902 701.3 16.602 L 701.3 32.802 Z M 530.2 56.002 L 530.2 79.102 L 514.8 79.102 L 514.8 40.602 L 532.5 40.602 L 514.8 16.902 L 514.8 2.002 L 551.8 2.002 C 566.7 2.002 578.8 14.102 578.8 29.002 C 578.8 43.902 566.7 56.002 551.8 56.002 L 530.2 56.002 Z M 305.8 17.402 L 298.1 17.402 L 298.1 63.702 L 305.8 63.702 L 305.8 79.102 L 275 79.102 L 275 63.702 L 282.7 63.702 L 282.7 17.402 L 275 17.402 L 275 2.002 L 305.8 2.002 L 305.8 17.402 Z M 427 64.502 L 427 16.602 A 25.241 25.241 0 0 0 410.064 38.71 A 25.175 25.175 0 0 0 410 40.502 C 410 51.002 416.5 61.002 427 64.502 Z M 685.9 64.502 L 685.9 16.602 A 25.241 25.241 0 0 0 668.964 38.71 A 25.175 25.175 0 0 0 668.9 40.502 C 668.9 51.002 675.4 61.002 685.9 64.502 Z M 332.2 63.702 L 357.9 63.702 L 332.2 28.202 L 332.2 63.702 Z M 551.8 17.402 L 534.5 17.402 L 551.8 40.602 C 558.2 40.602 563.4 35.402 563.4 29.002 C 563.4 22.602 558.2 17.402 551.8 17.402 Z M 458.1 48.302 L 442.4 48.302 L 442.4 64.502 C 449.7 62.102 455.8 56.102 458.1 48.302 Z M 717 48.302 L 701.3 48.302 L 701.3 64.502 C 708.6 62.102 714.7 56.102 717 48.302 Z" vector-effect="non-scaling-stroke"/></g></svg>
